<svg width="172" height="30" viewBox="0 0 172 30" fill="none" xmlns="http://www.w3.org/2000/svg">
<g clip-path="url(#clip0_36_60)">
<path d="M69.8764 4.10083L47.7645 26.1973L51.4755 29.9109L73.5874 7.81443L69.8764 4.10083Z" fill="#9772F4"/>
<path d="M75.99 8.44781H80.99V10.7578H81.07C81.2502 10.3927 81.4826 10.0558 81.76 9.75781C82.0938 9.42581 82.4704 9.13995 82.88 8.90781C83.3272 8.63637 83.8079 8.42458 84.31 8.27781C84.8796 8.12022 85.4691 8.04612 86.06 8.05781C87.1615 8.0393 88.2505 8.29352 89.23 8.79781C90.1573 9.29632 90.89 10.0924 91.31 11.0578C91.8034 10.0827 92.5672 9.27036 93.51 8.71781C94.4994 8.23916 95.5918 8.01244 96.69 8.05781C97.6851 8.02621 98.6741 8.22469 99.58 8.63781C100.322 8.99177 100.96 9.53283 101.43 10.2078C101.908 10.9212 102.248 11.7185 102.43 12.5578C102.635 13.5039 102.736 14.4697 102.73 15.4378V25.4378H97.46V15.5378C97.4722 14.8375 97.2961 14.1468 96.95 13.5378C96.7592 13.2417 96.4898 13.0044 96.1719 12.8526C95.8541 12.7007 95.5002 12.6402 95.15 12.6778C94.6272 12.6616 94.1075 12.7642 93.63 12.9778C93.2295 13.1571 92.8842 13.4402 92.63 13.7978C92.3792 14.1669 92.2026 14.5813 92.11 15.0178C92.0003 15.5 91.9466 15.9933 91.95 16.4878V25.4878H86.72V16.4878C86.72 16.1878 86.72 15.8078 86.72 15.3678C86.692 14.9206 86.6011 14.4796 86.45 14.0578C86.3057 13.6728 86.0687 13.3293 85.76 13.0578C85.3682 12.751 84.8762 12.6013 84.38 12.6378C83.8099 12.6108 83.2432 12.7386 82.74 13.0078C82.3167 13.237 81.9692 13.5845 81.74 14.0078C81.5061 14.4389 81.3568 14.9107 81.3 15.3978C81.2265 15.9313 81.1897 16.4693 81.19 17.0078V25.4678H75.99V8.44781Z" fill="#9772F4"/>
<path d="M107.78 3.05775C107.773 2.65743 107.848 2.25987 108.001 1.88992C108.154 1.51998 108.382 1.18561 108.67 0.907752C108.95 0.620484 109.284 0.392151 109.653 0.23624C110.022 0.0803281 110.419 0 110.82 0C111.221 0 111.618 0.0803281 111.987 0.23624C112.356 0.392151 112.691 0.620484 112.97 0.907752C113.258 1.18712 113.486 1.52132 113.643 1.8906C113.799 2.25988 113.88 2.65675 113.88 3.05775C113.886 3.45782 113.81 3.85486 113.657 4.22455C113.504 4.59424 113.277 4.9288 112.99 5.20775C112.711 5.49502 112.376 5.72335 112.007 5.87927C111.638 6.03518 111.241 6.11551 110.84 6.11551C110.439 6.11551 110.042 6.03518 109.673 5.87927C109.304 5.72335 108.97 5.49502 108.69 5.20775C108.398 4.932 108.166 4.59849 108.009 4.22837C107.852 3.85826 107.774 3.45962 107.78 3.05775ZM108.2 8.40775H113.44V25.4078H108.2V8.40775Z" fill="#9772F4"/>
<path d="M115.93 23.7677H115.29V23.2977H117.1V23.7677H116.46V25.4677H115.93V23.7677ZM117.6 23.2977H118.34L118.86 24.7077L119.37 23.2977H120.12V25.4677H119.58V24.0577L119.05 25.4677H118.68L118.14 24.0577V25.4677H117.61L117.6 23.2977Z" fill="#9772F4"/>
<path d="M7.88 8.44781H12.88V10.7578H12.96C13.1402 10.3927 13.3726 10.0558 13.65 9.75781C13.9733 9.42089 14.3398 9.12834 14.74 8.88781C15.1872 8.61637 15.6679 8.40458 16.17 8.25781C16.7503 8.10406 17.3501 8.03667 17.95 8.05781C19.0515 8.0393 20.1405 8.29352 21.12 8.79781C22.0474 9.29632 22.78 10.0924 23.2 11.0578C23.6934 10.0827 24.4572 9.27036 25.4 8.71781C26.3894 8.23916 27.4818 8.01244 28.58 8.05781C29.5752 8.02512 30.5645 8.22365 31.47 8.63781C32.2142 8.989 32.8524 9.53062 33.32 10.2078C33.7983 10.9212 34.1376 11.7185 34.32 12.5578C34.5254 13.5039 34.626 14.4697 34.62 15.4378V25.4378H29.35V15.5378C29.3622 14.8375 29.1861 14.1468 28.84 13.5378C28.65 13.2409 28.3808 13.003 28.0627 12.851C27.7446 12.699 27.3904 12.639 27.04 12.6778C26.5172 12.6616 25.9975 12.7642 25.52 12.9778C25.1195 13.1571 24.7742 13.4402 24.52 13.7978C24.2692 14.1669 24.0926 14.5813 24 15.0178C23.906 15.4918 23.8658 15.9748 23.88 16.4578V25.4578H18.61V16.4578C18.61 16.1578 18.61 15.7778 18.61 15.3378C18.5843 14.9001 18.4933 14.4686 18.34 14.0578C18.1957 13.6728 17.9587 13.3293 17.65 13.0578C17.2583 12.751 16.7662 12.6013 16.27 12.6378C15.6955 12.6275 15.1289 12.7727 14.63 13.0578C14.2067 13.287 13.8592 13.6345 13.63 14.0578C13.4005 14.4907 13.2514 14.9617 13.19 15.4478C13.1165 15.9813 13.0797 16.5193 13.08 17.0578V25.5178H7.88V8.44781Z" fill="#81E4F2"/>
<path d="M39.67 3.05779C39.668 2.66418 39.7458 2.27424 39.8988 1.91156C40.0517 1.54889 40.2767 1.22102 40.56 0.947791C40.8396 0.660523 41.1739 0.43219 41.5431 0.276279C41.9124 0.120367 42.3092 0.0400391 42.71 0.0400391C43.1109 0.0400391 43.5076 0.120367 43.8769 0.276279C44.2462 0.43219 44.5805 0.660523 44.86 0.947791C45.424 1.50577 45.744 2.26444 45.75 3.05779C45.7639 3.46309 45.6938 3.86688 45.5441 4.24377C45.3943 4.62066 45.1683 4.9625 44.88 5.24779C44.6005 5.53506 44.2662 5.76339 43.8969 5.9193C43.5276 6.07522 43.1309 6.15554 42.73 6.15554C42.3292 6.15554 41.9324 6.07522 41.5631 5.9193C41.1939 5.76339 40.8596 5.53506 40.58 5.24779C40.2826 4.96749 40.0478 4.62748 39.8909 4.25006C39.7341 3.87265 39.6588 3.46634 39.67 3.05779ZM40.09 8.40779H45.33V25.4078H40.09V8.40779Z" fill="#81E4F2"/>
<path d="M51.4742 4.10031L47.7618 7.81262L69.866 29.9168L73.5783 26.2045L51.4742 4.10031Z" fill="#81E4F2"/>
<path d="M134.06 19.9584C133.684 19.9584 133.416 19.8624 133.256 19.6704C133.096 19.4784 132.996 19.2384 132.956 18.9504H132.896C132.76 19.3104 132.54 19.5944 132.236 19.8024C131.94 20.0024 131.54 20.1024 131.036 20.1024C130.388 20.1024 129.872 19.9344 129.488 19.5984C129.104 19.2624 128.912 18.8024 128.912 18.2184C128.912 17.6424 129.12 17.1984 129.536 16.8864C129.96 16.5744 130.64 16.4184 131.576 16.4184H132.896V15.8064C132.896 15.3504 132.768 15.0104 132.512 14.7864C132.256 14.5544 131.892 14.4384 131.42 14.4384C131.004 14.4384 130.664 14.5224 130.4 14.6904C130.136 14.8504 129.924 15.0704 129.764 15.3504L129.116 14.8704C129.196 14.7104 129.304 14.5544 129.44 14.4024C129.576 14.2504 129.744 14.1184 129.944 14.0064C130.144 13.8864 130.372 13.7944 130.628 13.7304C130.884 13.6584 131.168 13.6224 131.48 13.6224C132.208 13.6224 132.784 13.8064 133.208 14.1744C133.64 14.5424 133.856 15.0544 133.856 15.7104V19.1184H134.72V19.9584H134.06ZM131.204 19.2984C131.452 19.2984 131.676 19.2704 131.876 19.2144C132.084 19.1504 132.264 19.0704 132.416 18.9744C132.568 18.8704 132.684 18.7504 132.764 18.6144C132.852 18.4704 132.896 18.3184 132.896 18.1584V17.1384H131.576C131 17.1384 130.58 17.2184 130.316 17.3784C130.052 17.5384 129.92 17.7704 129.92 18.0744V18.3264C129.92 18.6464 130.032 18.8904 130.256 19.0584C130.488 19.2184 130.804 19.2984 131.204 19.2984ZM136.275 19.1424H138.435V11.8944H136.275V11.0784H139.395V19.1424H141.555V19.9584H136.275V19.1424ZM143.651 13.7664H144.611V14.7744H144.659C145.059 14.0064 145.695 13.6224 146.567 13.6224C147.327 13.6224 147.919 13.9064 148.343 14.4744C148.775 15.0424 148.991 15.8384 148.991 16.8624C148.991 17.8864 148.775 18.6824 148.343 19.2504C147.919 19.8184 147.327 20.1024 146.567 20.1024C145.695 20.1024 145.059 19.7184 144.659 18.9504H144.611V22.3584H143.651V13.7664ZM146.195 19.2504C146.755 19.2504 147.187 19.0824 147.491 18.7464C147.803 18.4024 147.959 17.9504 147.959 17.3904V16.3344C147.959 15.7744 147.803 15.3264 147.491 14.9904C147.187 14.6464 146.755 14.4744 146.195 14.4744C145.979 14.4744 145.775 14.5024 145.583 14.5584C145.391 14.6144 145.223 14.6984 145.079 14.8104C144.935 14.9144 144.819 15.0464 144.731 15.2064C144.651 15.3584 144.611 15.5384 144.611 15.7464V17.9784C144.611 18.1864 144.651 18.3704 144.731 18.5304C144.819 18.6824 144.935 18.8144 145.079 18.9264C145.223 19.0304 145.391 19.1104 145.583 19.1664C145.775 19.2224 145.979 19.2504 146.195 19.2504ZM150.882 11.0784H151.842V14.7744H151.89C151.954 14.6224 152.034 14.4784 152.13 14.3424C152.226 14.1984 152.342 14.0744 152.478 13.9704C152.622 13.8664 152.79 13.7824 152.982 13.7184C153.174 13.6544 153.398 13.6224 153.654 13.6224C154.302 13.6224 154.822 13.8304 155.214 14.2464C155.606 14.6544 155.802 15.2344 155.802 15.9864V19.9584H154.842V16.1544C154.842 15.5864 154.718 15.1664 154.47 14.8944C154.222 14.6144 153.858 14.4744 153.378 14.4744C153.186 14.4744 152.998 14.4984 152.814 14.5464C152.63 14.5944 152.466 14.6664 152.322 14.7624C152.178 14.8584 152.062 14.9824 151.974 15.1344C151.886 15.2864 151.842 15.4624 151.842 15.6624V19.9584H150.882V11.0784ZM162.841 19.9584C162.465 19.9584 162.197 19.8624 162.037 19.6704C161.877 19.4784 161.777 19.2384 161.737 18.9504H161.677C161.541 19.3104 161.321 19.5944 161.017 19.8024C160.721 20.0024 160.321 20.1024 159.817 20.1024C159.169 20.1024 158.653 19.9344 158.269 19.5984C157.885 19.2624 157.693 18.8024 157.693 18.2184C157.693 17.6424 157.901 17.1984 158.317 16.8864C158.741 16.5744 159.421 16.4184 160.357 16.4184H161.677V15.8064C161.677 15.3504 161.549 15.0104 161.293 14.7864C161.037 14.5544 160.673 14.4384 160.201 14.4384C159.785 14.4384 159.445 14.5224 159.181 14.6904C158.917 14.8504 158.705 15.0704 158.545 15.3504L157.897 14.8704C157.977 14.7104 158.085 14.5544 158.221 14.4024C158.357 14.2504 158.525 14.1184 158.725 14.0064C158.925 13.8864 159.153 13.7944 159.409 13.7304C159.665 13.6584 159.949 13.6224 160.261 13.6224C160.989 13.6224 161.565 13.8064 161.989 14.1744C162.421 14.5424 162.637 15.0544 162.637 15.7104V19.1184H163.501V19.9584H162.841ZM159.985 19.2984C160.233 19.2984 160.457 19.2704 160.657 19.2144C160.865 19.1504 161.045 19.0704 161.197 18.9744C161.349 18.8704 161.465 18.7504 161.545 18.6144C161.633 18.4704 161.677 18.3184 161.677 18.1584V17.1384H160.357C159.781 17.1384 159.361 17.2184 159.097 17.3784C158.833 17.5384 158.701 17.7704 158.701 18.0744V18.3264C158.701 18.6464 158.813 18.8904 159.037 19.0584C159.269 19.2184 159.585 19.2984 159.985 19.2984Z" fill="white"/>
</g>
<defs>
<clipPath id="clip0_36_60">
<rect width="172" height="29.9168" fill="white"/>
</clipPath>
</defs>
</svg>
